<svg width="113" height="14" viewBox="0 0 113 14" fill="none" xmlns="http://www.w3.org/2000/svg">
<path d="M5.544 0.0179996H8.262L9.594 4.104L10.926 0.0179996H13.662L11.484 5.958L12.78 9.36L15.984 0H19.206L14.22 12.78H11.664L9.594 7.776L7.542 12.78H4.968L0 0H3.204L6.426 9.36L7.686 5.958L5.544 0.0179996Z" fill="#4D5AE5"/>
<path d="M29.8384 10.188V12.78H20.8564V0H29.6764V2.592H23.8084V5.076H28.8484V7.47H23.8084V10.188H29.8384Z" fill="#4D5AE5"/>
<path d="M42.7378 9.504C42.7378 10.236 42.5398 10.848 42.1438 11.34C41.7598 11.82 41.2378 12.18 40.5778 12.42C39.9178 12.66 39.1918 12.78 38.3998 12.78H32.1718V0H39.2818C39.8818 0 40.3978 0.162 40.8298 0.486C41.2738 0.798 41.6098 1.206 41.8378 1.71C42.0778 2.214 42.1978 2.736 42.1978 3.276C42.1978 3.876 42.0418 4.452 41.7298 5.004C41.4178 5.544 40.9618 5.952 40.3618 6.228C41.0938 6.444 41.6698 6.828 42.0898 7.38C42.5218 7.932 42.7378 8.64 42.7378 9.504ZM39.7318 8.91C39.7318 8.634 39.6778 8.394 39.5698 8.19C39.4618 7.974 39.3178 7.806 39.1378 7.686C38.9698 7.554 38.7658 7.488 38.5258 7.488H35.1238V10.278H38.3998C38.6518 10.278 38.8738 10.218 39.0658 10.098C39.2698 9.978 39.4318 9.816 39.5518 9.612C39.6718 9.408 39.7318 9.174 39.7318 8.91ZM35.1238 2.52V5.166H38.0218C38.2378 5.166 38.4358 5.118 38.6158 5.022C38.8078 4.926 38.9638 4.782 39.0838 4.59C39.2038 4.386 39.2638 4.134 39.2638 3.834C39.2638 3.546 39.2098 3.306 39.1018 3.114C39.0058 2.922 38.8738 2.778 38.7058 2.682C38.5378 2.574 38.3458 2.52 38.1298 2.52H35.1238Z" fill="#4D5AE5"/>
<path d="M51.3058 3.852C51.2698 3.792 51.1438 3.702 50.9278 3.582C50.7118 3.45 50.4418 3.312 50.1178 3.168C49.7938 3.024 49.4398 2.898 49.0558 2.79C48.6718 2.682 48.2878 2.628 47.9038 2.628C47.3998 2.628 47.0098 2.718 46.7338 2.898C46.4578 3.066 46.3198 3.33 46.3198 3.69C46.3198 3.978 46.4218 4.206 46.6258 4.374C46.8418 4.542 47.1478 4.692 47.5438 4.824C47.9398 4.944 48.4258 5.088 49.0018 5.256C49.8178 5.472 50.5258 5.736 51.1258 6.048C51.7258 6.348 52.1818 6.738 52.4938 7.218C52.8178 7.698 52.9798 8.334 52.9798 9.126C52.9798 9.846 52.8478 10.458 52.5838 10.962C52.3198 11.454 51.9598 11.856 51.5038 12.168C51.0598 12.468 50.5498 12.69 49.9738 12.834C49.3978 12.966 48.8038 13.032 48.1918 13.032C47.5678 13.032 46.9258 12.972 46.2658 12.852C45.6178 12.72 44.9938 12.54 44.3938 12.312C43.7938 12.072 43.2418 11.784 42.7378 11.448L44.0338 8.874C44.0818 8.934 44.2378 9.048 44.5018 9.216C44.7658 9.372 45.0898 9.54 45.4738 9.72C45.8698 9.888 46.3078 10.038 46.7878 10.17C47.2678 10.302 47.7538 10.368 48.2458 10.368C48.7738 10.368 49.1638 10.284 49.4158 10.116C49.6798 9.948 49.8118 9.714 49.8118 9.414C49.8118 9.09 49.6738 8.838 49.3978 8.658C49.1338 8.478 48.7678 8.316 48.2998 8.172C47.8438 8.028 47.3158 7.866 46.7158 7.686C45.9358 7.446 45.2878 7.176 44.7718 6.876C44.2678 6.576 43.8898 6.21 43.6378 5.778C43.3978 5.346 43.2778 4.806 43.2778 4.158C43.2778 3.258 43.4878 2.502 43.9078 1.89C44.3398 1.266 44.9158 0.798 45.6358 0.486C46.3558 0.162 47.1418 0 47.9938 0C48.5938 0 49.1698 0.072 49.7218 0.216C50.2858 0.36 50.8078 0.54 51.2878 0.756C51.7798 0.972 52.2178 1.188 52.6018 1.404L51.3058 3.852Z" fill="#2E2F42"/>
<path d="M64.99 2.7H61.102V12.888H58.15V2.7H54.244V0.108H64.99V2.7Z" fill="#2E2F42"/>
<path d="M72.4617 12.996C71.4417 12.996 70.5717 12.828 69.8517 12.492C69.1317 12.144 68.5437 11.676 68.0877 11.088C67.6437 10.488 67.3137 9.81 67.0977 9.054C66.8937 8.286 66.7917 7.482 66.7917 6.642V0.108H69.7437V6.642C69.7437 7.122 69.7917 7.59 69.8877 8.046C69.9837 8.49 70.1397 8.886 70.3557 9.234C70.5717 9.582 70.8477 9.858 71.1837 10.062C71.5317 10.266 71.9577 10.368 72.4617 10.368C72.9777 10.368 73.4097 10.266 73.7577 10.062C74.1057 9.846 74.3817 9.564 74.5857 9.216C74.7897 8.856 74.9397 8.454 75.0357 8.01C75.1317 7.566 75.1797 7.11 75.1797 6.642V0.108H78.1317V6.642C78.1317 7.53 78.0177 8.358 77.7897 9.126C77.5737 9.894 77.2377 10.572 76.7817 11.16C76.3257 11.736 75.7377 12.186 75.0177 12.51C74.3097 12.834 73.4577 12.996 72.4617 12.996Z" fill="#2E2F42"/>
<path d="M80.959 12.888V0.108H85.729C87.133 0.108 88.303 0.395999 89.239 0.971999C90.187 1.536 90.901 2.304 91.381 3.276C91.861 4.236 92.101 5.304 92.101 6.48C92.101 7.776 91.837 8.904 91.309 9.864C90.781 10.824 90.037 11.568 89.077 12.096C88.129 12.624 87.013 12.888 85.729 12.888H80.959ZM89.095 6.48C89.095 5.736 88.963 5.082 88.699 4.518C88.435 3.942 88.051 3.498 87.547 3.186C87.043 2.862 86.437 2.7 85.729 2.7H83.911V10.296H85.729C86.449 10.296 87.055 10.134 87.547 9.81C88.051 9.474 88.435 9.018 88.699 8.442C88.963 7.854 89.095 7.2 89.095 6.48Z" fill="#2E2F42"/>
<path d="M94.3837 12.888V0.108H97.3357V12.888H94.3837Z" fill="#2E2F42"/>
<path d="M105.918 12.996C104.958 12.996 104.088 12.816 103.308 12.456C102.54 12.084 101.874 11.592 101.31 10.98C100.758 10.356 100.332 9.66 100.032 8.892C99.7322 8.112 99.5822 7.308 99.5822 6.48C99.5822 5.628 99.7382 4.818 100.05 4.05C100.374 3.282 100.818 2.598 101.382 1.998C101.958 1.386 102.636 0.906 103.416 0.558C104.196 0.21 105.048 0.0359998 105.972 0.0359998C106.92 0.0359998 107.778 0.222 108.546 0.594C109.326 0.954 109.992 1.446 110.544 2.07C111.108 2.694 111.54 3.396 111.84 4.176C112.14 4.944 112.29 5.73 112.29 6.534C112.29 7.386 112.134 8.196 111.822 8.964C111.51 9.732 111.066 10.422 110.49 11.034C109.914 11.634 109.236 12.114 108.456 12.474C107.688 12.822 106.842 12.996 105.918 12.996ZM102.588 6.516C102.588 7.008 102.66 7.488 102.804 7.956C102.948 8.412 103.158 8.82 103.434 9.18C103.722 9.54 104.076 9.828 104.496 10.044C104.916 10.26 105.396 10.368 105.936 10.368C106.5 10.368 106.992 10.26 107.412 10.044C107.832 9.816 108.18 9.516 108.456 9.144C108.732 8.772 108.936 8.358 109.068 7.902C109.212 7.434 109.284 6.96 109.284 6.48C109.284 5.988 109.212 5.514 109.068 5.058C108.924 4.602 108.708 4.194 108.42 3.834C108.132 3.462 107.778 3.174 107.358 2.97C106.938 2.766 106.464 2.664 105.936 2.664C105.372 2.664 104.88 2.772 104.46 2.988C104.052 3.204 103.704 3.498 103.416 3.87C103.14 4.23 102.93 4.644 102.786 5.112C102.654 5.568 102.588 6.036 102.588 6.516Z" fill="#2E2F42"/>
</svg>
